<?xml version="1.0" standalone="no"?>
<!DOCTYPE svg PUBLIC "-//W3C//DTD SVG 20010904//EN"
 "http://www.w3.org/TR/2001/REC-SVG-20010904/DTD/svg10.dtd">
<svg version="1.0" xmlns="http://www.w3.org/2000/svg"
 width="512.000000pt" height="512.000000pt" viewBox="0 0 512.000000 512.000000"
 preserveAspectRatio="xMidYMid meet">
<metadata>
Created by potrace 1.14, written by Peter Selinger 2001-2017
</metadata>
<g transform="translate(0.000000,512.000000) scale(0.100000,-0.100000)"
fill="#000000" stroke="none">
<path d="M0 2560 l0 -2560 2560 0 2560 0 0 2560 0 2560 -2560 0 -2560 0 0
-2560z m2890 1835 c167 -26 466 -92 570 -126 154 -51 350 -166 497 -292 127
-108 187 -177 260 -299 156 -259 213 -449 213 -706 0 -133 -13 -199 -71 -381
-48 -147 -51 -161 -47 -241 4 -77 9 -94 51 -179 29 -58 47 -107 47 -129 0 -33
-33 -102 -49 -102 -4 0 -18 -10 -30 -22 -22 -20 -23 -26 -17 -98 6 -69 4 -79
-14 -95 -17 -15 -20 -26 -14 -61 6 -39 3 -45 -35 -87 -43 -46 -71 -101 -71
-139 0 -122 -102 -208 -248 -208 -78 0 -215 -26 -355 -67 -105 -31 -122 -48
-165 -161 -26 -69 -42 -142 -56 -262 -3 -19 -3 4 -1 51 5 125 43 255 96 331
34 47 307 131 472 144 45 3 93 10 106 16 70 26 131 104 131 168 0 40 31 101
75 144 42 42 48 86 12 86 -13 0 -28 -5 -35 -12 -9 -9 -12 -9 -12 0 0 6 19 21
43 33 23 12 46 27 50 33 4 6 5 36 3 66 -3 30 -2 73 4 95 5 22 7 41 5 43 -2 3
-24 7 -50 9 -33 4 -45 10 -45 22 0 23 26 58 36 49 4 -5 -1 -17 -11 -28 -10
-11 -16 -22 -14 -24 2 -2 29 -6 59 -8 49 -5 57 -3 82 23 22 22 28 37 28 71 0
53 -44 148 -68 149 -10 0 -12 3 -6 5 8 3 3 27 -16 72 -25 61 -27 73 -19 135 4
37 11 72 14 77 4 6 1 10 -4 10 -6 0 -11 5 -11 11 0 5 5 7 10 4 13 -8 33 43 25
64 -3 8 -3 12 1 8 8 -8 58 111 80 191 17 63 19 318 4 408 -26 145 -138 423
-169 416 -7 -1 -10 2 -6 7 8 13 -24 63 -36 55 -5 -3 -6 1 -3 9 18 48 -313 387
-363 371 -14 -5 -15 -4 -4 4 35 25 -333 219 -371 196 -6 -4 -8 -3 -5 3 7 11
-109 53 -146 53 -13 0 -45 7 -71 16 -41 14 -50 14 -57 3 -6 -9 -9 -10 -9 -2 0
7 -17 15 -37 19 -21 3 -78 14 -128 24 -59 12 -91 15 -94 8 -2 -7 -6 -7 -10 1
-10 15 -131 31 -132 17 0 -6 -3 -6 -6 2 -3 9 -52 12 -194 12 -104 0 -189 -3
-189 -7 0 -5 -30 -9 -67 -9 -43 -1 -69 -6 -71 -14 -3 -8 -7 -9 -11 -2 -4 7
-42 5 -116 -8 -125 -21 -145 -27 -145 -44 0 -7 -3 -7 -8 2 -10 15 -89 -1 -262
-55 -256 -81 -538 -276 -692 -479 -23 -31 -37 -58 -32 -65 4 -8 3 -9 -4 -5 -6
4 -18 -5 -28 -21 -9 -15 -30 -47 -45 -69 -36 -52 -94 -177 -125 -268 -49 -142
-53 -185 -53 -501 0 -33 22 -129 35 -150 6 -11 20 -43 30 -72 9 -29 20 -50 23
-48 3 1 7 -11 7 -28 1 -17 9 -36 20 -44 10 -7 12 -13 5 -13 -7 0 -10 -4 -6
-10 12 -19 22 -145 13 -157 -5 -7 -7 -17 -3 -23 3 -5 2 -10 -3 -10 -9 0 -37
-78 -34 -92 1 -5 -2 -8 -7 -8 -18 0 -61 -104 -61 -148 0 -34 6 -49 28 -70 24
-25 33 -27 85 -24 60 4 67 10 41 36 -8 9 -12 21 -8 27 8 14 33 -26 34 -53 0
-14 -8 -18 -37 -18 -56 0 -63 -9 -53 -55 5 -22 6 -65 3 -96 -5 -52 -4 -57 22
-77 15 -12 33 -22 40 -22 7 0 18 -7 25 -15 10 -12 6 -13 -24 -8 -33 5 -36 4
-36 -19 0 -14 12 -35 26 -49 48 -44 78 -101 85 -162 14 -115 90 -171 254 -187
109 -10 248 -43 364 -86 58 -21 77 -34 97 -63 50 -77 95 -249 93 -356 -1 -39
-4 -30 -10 35 -9 92 -46 221 -82 284 -31 56 -66 73 -245 118 -121 30 -175 39
-237 39 -67 -1 -89 3 -133 25 -66 32 -109 88 -117 152 -11 79 -25 112 -72 164
-42 47 -44 53 -39 93 6 34 3 45 -14 60 -19 17 -20 26 -14 82 8 81 2 104 -36
126 -37 22 -60 64 -60 110 0 21 18 71 47 128 48 93 48 95 48 194 0 91 -4 111
-43 226 -57 171 -72 244 -72 374 0 202 41 388 122 550 63 124 156 271 211 332
159 173 431 354 637 421 125 42 439 109 615 132 170 23 454 20 615 -5z m-183
-37 c-3 -7 -5 -2 -5 12 0 14 2 19 5 13 2 -7 2 -19 0 -25z m-290 0 c-3 -8 -6
-5 -6 6 -1 11 2 17 5 13 3 -3 4 -12 1 -19z m83 6 c0 -8 -5 -12 -10 -9 -6 4 -8
11 -5 16 9 14 15 11 15 -7z m135 7 c3 -5 1 -12 -5 -16 -5 -3 -10 1 -10 9 0 18
6 21 15 7z m150 -41 c3 -5 1 -10 -4 -10 -6 0 -11 5 -11 10 0 6 2 10 4 10 3 0
8 -4 11 -10z m-475 -10 c0 -5 -2 -10 -4 -10 -3 0 -8 5 -11 10 -3 6 -1 10 4 10
6 0 11 -4 11 -10z m520 6 c0 -2 -7 -9 -15 -16 -13 -11 -14 -10 -9 4 5 14 24
23 24 12z m114 -32 c5 -14 4 -15 -9 -4 -17 14 -19 20 -6 20 5 0 12 -7 15 -16z
m-1097 -256 c-3 -8 -6 -5 -6 6 -1 11 2 17 5 13 3 -3 4 -12 1 -19z m-72 -68
c-3 -5 -12 -10 -18 -10 -7 0 -6 4 3 10 19 12 23 12 15 0z m1579 2 c2 -4 -4 -8
-14 -8 -10 0 -16 4 -14 8 3 4 9 8 14 8 5 0 11 -4 14 -8z m-1621 -26 c3 -8 0
-17 -7 -19 -10 -4 -12 1 -9 14 6 23 9 24 16 5z m-33 -71 c0 -8 -2 -15 -4 -15
-2 0 -6 7 -10 15 -3 8 -1 15 4 15 6 0 10 -7 10 -15z m1820 -145 c-6 -11 -13
-20 -15 -20 -3 0 -5 9 -5 20 0 11 7 20 15 20 13 0 14 -4 5 -20z m25 -80 c3 -6
-1 -10 -9 -10 -8 0 -20 9 -26 21 -11 19 -10 20 9 10 11 -6 23 -16 26 -21z
m-1975 -84 c0 -3 -4 -8 -10 -11 -5 -3 -10 -1 -10 4 0 6 5 11 10 11 6 0 10 -2
10 -4z m2000 -6 c0 -5 -2 -10 -4 -10 -3 0 -8 5 -11 10 -3 6 -1 10 4 10 6 0 11
-4 11 -10z m-1982 -70 c-17 -27 -42 -37 -28 -11 8 16 19 24 38 30 1 1 -3 -8
-10 -19z m-113 -80 c3 -5 -1 -10 -10 -10 -9 0 -13 5 -10 10 3 6 8 10 10 10 2
0 7 -4 10 -10z m2185 0 c0 -5 -4 -10 -10 -10 -5 0 -10 5 -10 10 0 6 5 10 10
10 6 0 10 -4 10 -10z m-2086 -16 c3 -8 2 -12 -4 -9 -6 3 -10 10 -10 16 0 14 7
11 14 -7z m2076 -23 c0 -6 -4 -12 -8 -15 -5 -3 -9 1 -9 9 0 8 4 15 9 15 4 0 8
-4 8 -9z m27 -87 c-3 -3 -12 -4 -19 -1 -8 3 -5 6 6 6 11 1 17 -2 13 -5z
m-2227 -64 c0 -5 -7 -7 -15 -4 -8 4 -15 8 -15 10 0 2 7 4 15 4 8 0 15 -4 15
-10z m2247 4 c-3 -3 -12 -4 -19 -1 -8 3 -5 6 6 6 11 1 17 -2 13 -5z m-2227
-24 c0 -5 -5 -10 -11 -10 -5 0 -7 5 -4 10 3 6 8 10 11 10 2 0 4 -4 4 -10z
m2155 -10 c-3 -5 -10 -10 -16 -10 -5 0 -9 5 -9 10 0 6 7 10 16 10 8 0 12 -4 9
-10z m31 -35 c9 -8 11 -15 6 -15 -5 0 -15 7 -22 15 -7 8 -9 15 -6 15 4 0 14
-7 22 -15z m-2213 -79 c4 -10 1 -13 -8 -9 -8 3 -12 9 -9 14 7 12 11 11 17 -5z
m2251 5 c3 -5 -1 -11 -9 -14 -9 -4 -12 -1 -8 9 6 16 10 17 17 5z m0 -57 c3 -8
2 -12 -4 -9 -6 3 -10 10 -10 16 0 14 7 11 14 -7z m-2044 -58 c0 -3 -4 -8 -10
-11 -5 -3 -10 -1 -10 4 0 6 5 11 10 11 6 0 10 -2 10 -4z m-166 -28 c-3 -4 -11
-5 -19 -1 -21 7 -19 12 4 10 11 0 18 -5 15 -9z m-39 -17 c3 -5 2 -12 -3 -15
-5 -3 -9 1 -9 9 0 17 3 19 12 6z m2235 -69 c0 -5 -7 -9 -15 -9 -8 0 -12 4 -9
9 3 4 9 8 15 8 5 0 9 -4 9 -8z m-2140 -67 c0 -5 -5 -3 -10 5 -5 8 -10 20 -10
25 0 6 5 3 10 -5 5 -8 10 -19 10 -25z m2090 -20 c11 -13 10 -14 -4 -9 -9 3
-16 10 -16 15 0 13 6 11 20 -6z m-2154 -21 c-9 -8 -13 -20 -10 -26 4 -7 2 -8
-4 -4 -14 8 2 46 19 46 6 0 3 -7 -5 -16z m2181 -31 c-3 -10 -5 -4 -5 12 0 17
2 24 5 18 2 -7 2 -21 0 -30z m-2022 17 c3 -5 1 -10 -4 -10 -6 0 -11 5 -11 10
0 6 2 10 4 10 3 0 8 -4 11 -10z m1860 0 c3 -5 1 -10 -4 -10 -6 0 -11 5 -11 10
0 6 2 10 4 10 3 0 8 -4 11 -10z m95 -15 c0 -9 -50 -10 -53 0 -3 7 5 10 24 7
16 -2 29 -5 29 -7z m-2029 -18 c-10 -9 -11 -8 -5 6 3 10 9 15 12 12 3 -3 0
-11 -7 -18z m2070 -30 c-10 -9 -11 -8 -5 6 3 10 9 15 12 12 3 -3 0 -11 -7 -18z
m-2081 -17 c-8 -5 -17 -7 -19 -4 -3 3 1 9 9 14 8 5 17 7 19 4 3 -3 -1 -9 -9
-14z m-33 -6 c-3 -3 -12 -4 -19 -1 -8 3 -5 6 6 6 11 1 17 -2 13 -5z m-467 -48
c0 -2 -7 -7 -16 -10 -8 -3 -12 -2 -9 4 6 10 25 14 25 6z m110 0 c0 -2 -9 -6
-20 -9 -11 -3 -20 -1 -20 4 0 5 9 9 20 9 11 0 20 -2 20 -4z m2330 -8 c0 -4 -4
-8 -9 -8 -6 0 -12 4 -15 8 -3 5 1 9 9 9 8 0 15 -4 15 -9z m503 5 c-7 -2 -19
-2 -25 0 -7 3 -2 5 12 5 14 0 19 -2 13 -5z m-403 -13 c0 -5 -2 -10 -4 -10 -3
0 -8 5 -11 10 -3 6 -1 10 4 10 6 0 11 -4 11 -10z m-2393 -6 c-3 -3 -12 -4 -19
-1 -8 3 -5 6 6 6 11 1 17 -2 13 -5z m2393 -26 c0 -4 -8 -12 -19 -17 -16 -9
-18 -6 -17 18 1 24 3 26 19 17 9 -6 17 -14 17 -18z m-126 -4 c3 -8 2 -12 -4
-9 -6 3 -10 10 -10 16 0 14 7 11 14 -7z m-2517 -10 c-3 -3 -12 -4 -19 -1 -8 3
-5 6 6 6 11 1 17 -2 13 -5z m320 0 c-3 -3 -12 -4 -19 -1 -8 3 -5 6 6 6 11 1
17 -2 13 -5z m2930 0 c-3 -3 -12 -4 -19 -1 -8 3 -5 6 6 6 11 1 17 -2 13 -5z
m-2557 -35 c0 -6 -4 -7 -10 -4 -5 3 -10 11 -10 16 0 6 5 7 10 4 6 -3 10 -11
10 -16z m1806 9 c4 -7 4 -10 -1 -6 -4 4 -15 2 -24 -5 -14 -11 -14 -10 -2 6 16
20 18 21 27 5z m89 -8 c-3 -5 -10 -10 -16 -10 -5 0 -9 5 -9 10 0 6 7 10 16 10
8 0 12 -4 9 -10z m-2652 -20 c3 -11 1 -18 -4 -14 -5 3 -9 12 -9 20 0 20 7 17
13 -6z m3267 -16 c0 -8 -19 -13 -24 -6 -3 5 1 9 9 9 8 0 15 -2 15 -3z m-2436
-22 c3 -5 -1 -9 -9 -9 -8 0 -12 4 -9 9 3 4 7 8 9 8 2 0 6 -4 9 -8z m-566 -32
c28 0 52 -4 52 -10 0 -11 -41 -13 -127 -4 -37 4 -60 11 -60 19 0 8 12 10 41 4
23 -5 65 -8 94 -9z m2293 -3 c-10 -9 -11 -8 -5 6 3 10 9 15 12 12 3 -3 0 -11
-7 -18z m667 -2 c-10 -10 -188 -14 -188 -5 0 6 21 10 48 11 26 0 67 4 92 7 39
6 61 0 48 -13z m-2394 -10 c-4 -8 -11 -15 -16 -15 -6 0 -5 6 2 15 7 8 14 15
16 15 2 0 1 -7 -2 -15z m37 6 c-8 -5 -10 -14 -6 -22 6 -11 5 -11 -5 -2 -14 12
-6 33 13 33 8 0 7 -3 -2 -9z m-101 -5 c0 -3 -4 -8 -10 -11 -5 -3 -10 -1 -10 4
0 6 5 11 10 11 6 0 10 -2 10 -4z m2620 -22 c0 -8 -19 -13 -24 -6 -3 5 1 9 9 9
8 0 15 -2 15 -3z m-2238 -26 c-7 -7 -12 -8 -12 -2 0 6 3 14 7 17 3 4 9 5 12 2
2 -3 -1 -11 -7 -17z m1387 13 c7 -5 9 -11 5 -14 -5 -3 -15 1 -22 9 -14 16 -5
18 17 5z m-2343 -22 c10 -12 28 -25 39 -30 17 -6 17 -8 3 -8 -10 -1 -32 12
-50 29 -18 16 -28 30 -22 30 6 0 19 -10 30 -21z m618 -5 c8 -21 -12 -17 -24 6
-8 16 -8 18 4 14 8 -3 17 -12 20 -20z m2371 7 c-3 -6 -16 -16 -28 -22 -21 -11
-21 -10 2 15 23 25 40 29 26 7z m-2180 -31 c3 -5 1 -10 -4 -10 -6 0 -11 5 -11
10 0 6 2 10 4 10 3 0 8 -4 11 -10z m1445 -50 c0 -5 -4 -10 -10 -10 -5 0 -10 5
-10 10 0 6 5 10 10 10 6 0 10 -4 10 -10z m-1540 -34 c0 -2 -7 -7 -16 -10 -8
-3 -12 -2 -9 4 6 10 25 14 25 6z m1538 -41 c-3 -3 -9 2 -12 12 -6 14 -5 15 5
6 7 -7 10 -15 7 -18z m-1513 -5 c3 -5 1 -10 -4 -10 -6 0 -11 5 -11 10 0 6 2
10 4 10 3 0 8 -4 11 -10z m1485 -40 c-20 -13 -50 -13 -50 0 0 6 15 10 33 10
24 0 28 -3 17 -10z m-1418 -112 c-7 -7 -12 -8 -12 -2 0 6 3 14 7 17 3 4 9 5
12 2 2 -3 -1 -11 -7 -17z m1328 -22 c0 -3 -4 -8 -10 -11 -5 -3 -10 -1 -10 4 0
6 5 11 10 11 6 0 10 -2 10 -4z m-65 -16 c3 -5 1 -10 -4 -10 -6 0 -11 5 -11 10
0 6 2 10 4 10 3 0 8 -4 11 -10z m3 -85 c-3 -3 -9 2 -12 12 -6 14 -5 15 5 6 7
-7 10 -15 7 -18z m-1198 5 c0 -5 -2 -10 -4 -10 -3 0 -8 5 -11 10 -3 6 -1 10 4
10 6 0 11 -4 11 -10z m1240 6 c0 -3 -4 -8 -10 -11 -5 -3 -10 -1 -10 4 0 6 5
11 10 11 6 0 10 -2 10 -4z m-20 -30 c0 -2 -7 -7 -16 -10 -8 -3 -12 -2 -9 4 6
10 25 14 25 6z m-50 -47 c0 -5 -4 -9 -8 -9 -5 0 -9 7 -9 15 0 8 4 12 9 9 4 -3
8 -9 8 -15z m-1165 1 c-3 -5 -10 -10 -16 -10 -5 0 -9 5 -9 10 0 6 7 10 16 10
8 0 12 -4 9 -10z m1195 -64 c0 -3 -4 -8 -10 -11 -5 -3 -10 -1 -10 4 0 6 5 11
10 11 6 0 10 -2 10 -4z m-1045 -45 c-6 -5 -25 10 -25 20 0 5 6 4 14 -3 8 -7
12 -15 11 -17z m-55 -51 c0 -5 -4 -10 -10 -10 -5 0 -10 5 -10 10 0 6 5 10 10
10 6 0 10 -4 10 -10z m755 -10 c3 -5 2 -10 -4 -10 -5 0 -13 5 -16 10 -3 6 -2
10 4 10 5 0 13 -4 16 -10z m-780 -20 c3 -6 -1 -7 -9 -4 -18 7 -21 14 -7 14 6
0 13 -4 16 -10z m1040 0 c-3 -5 -12 -10 -18 -10 -7 0 -6 4 3 10 19 12 23 12
15 0z m-965 -60 c8 -5 11 -10 5 -10 -5 0 -17 5 -25 10 -8 5 -10 10 -5 10 6 0
17 -5 25 -10z m-50 -4 c0 -3 -4 -8 -10 -11 -5 -3 -10 -1 -10 4 0 6 5 11 10 11
6 0 10 -2 10 -4z m5 -36 c-3 -5 -12 -10 -18 -10 -7 0 -6 4 3 10 19 12 23 12
15 0z m55 -130 c0 -5 -4 -10 -10 -10 -5 0 -10 5 -10 10 0 6 5 10 10 10 6 0 10
-4 10 -10z m-50 -37 c0 -5 -5 -15 -10 -23 -8 -12 -10 -11 -10 8 0 12 5 22 10
22 6 0 10 -3 10 -7z m925 -23 c3 -6 -1 -7 -9 -4 -18 7 -21 14 -7 14 6 0 13 -4
16 -10z m-865 -274 c0 -2 -7 -7 -16 -10 -8 -3 -12 -2 -9 4 6 10 25 14 25 6z
m975 -146 c3 -6 -1 -7 -9 -4 -18 7 -21 14 -7 14 6 0 13 -4 16 -10z m-1075 -65
c-7 -8 -8 -20 -4 -27 5 -10 4 -10 -6 -1 -10 9 -10 15 -2 26 7 8 8 18 4 22 -4
5 -1 5 6 1 10 -6 10 -11 2 -21z m1094 -40 c3 -9 0 -15 -9 -15 -9 0 -12 6 -9
15 4 8 7 15 9 15 2 0 5 -7 9 -15z m-24 -29 c0 -3 -4 -8 -10 -11 -5 -3 -10 -1
-10 4 0 6 5 11 10 11 6 0 10 -2 10 -4z"/>
</g>
</svg>
